<svg xmlns="http://www.w3.org/2000/svg" viewBox="0 0 451 451"><path fill="#fff" fill-rule="evenodd" d="M 0 225.502 L 0 451.004 225.750 450.752 L 451.500 450.500 451.752 225.250 L 452.004 0 226.002 0 L 0 0 0 225.502 M 0.491 226 C 0.491 350.025, 0.608 400.762, 0.750 338.750 C 0.892 276.737, 0.892 175.262, 0.750 113.250 C 0.608 51.237, 0.491 101.975, 0.491 226 M 23 225.500 L 23 429 225 429 L 427 429 427 225.500 L 427 22 225 22 L 23 22 23 225.500 M 38 225.500 L 38 415 108 415 L 178 415 178 322 L 178 229 124 229 L 70 229 70 182.009 L 70 135.017 123.750 134.759 L 177.500 134.500 177.818 111.500 C 177.992 98.850, 177.829 76.688, 177.454 62.250 L 176.773 36 107.387 36 L 38 36 38 225.500 M 272 85.500 L 272 135 325 135 L 378 135 378 182 L 378 229 325 229 L 272 229 272.014 319.750 C 272.021 369.663, 272.299 411.512, 272.630 412.750 L 273.233 415 342.617 415 L 412 415 412 225.500 L 412 36 342 36 L 272 36 272 85.500"/></svg>